<svg xmlns="http://www.w3.org/2000/svg" width="22.527" height="22.527" viewBox="0 0 22.527 22.527">
  <path id="Trazado_2" data-name="Trazado 2" d="M-148.193,306.608a1.325,1.325,0,0,0-1.324,1.325,1.324,1.324,0,0,0,1.324,1.324,1.325,1.325,0,0,0,1.325-1.324A1.325,1.325,0,0,0-148.193,306.608Zm-5.888,1.7a5.57,5.57,0,0,0-5.563,5.564,5.57,5.57,0,0,0,5.563,5.563,5.569,5.569,0,0,0,5.563-5.563A5.569,5.569,0,0,0-154.08,308.307Zm0,9.127a3.568,3.568,0,0,1-3.564-3.564,3.568,3.568,0,0,1,3.564-3.564,3.568,3.568,0,0,1,3.564,3.564A3.568,3.568,0,0,1-154.08,317.434Zm11.225-8.187a6.785,6.785,0,0,0-6.785-6.785H-158.6a6.786,6.786,0,0,0-6.785,6.785V318.2a6.786,6.786,0,0,0,6.785,6.785h8.956a6.785,6.785,0,0,0,6.785-6.785Zm-2.125,8.956a4.66,4.66,0,0,1-4.661,4.66H-158.6a4.66,4.66,0,0,1-4.66-4.66v-8.956a4.66,4.66,0,0,1,4.66-4.66h8.956a4.66,4.66,0,0,1,4.661,4.66Z" transform="translate(165.382 -302.461)" fill="#fff"/>
</svg>
