<svg xmlns="http://www.w3.org/2000/svg" width="230.049" height="78.442" viewBox="0 0 230.049 78.442">
  <path id="Trazado_27" data-name="Trazado 27" d="M450.934,762.441c-2.133-.859-3.1.77-4.187,2.078a103.472,103.472,0,0,1-39.877,29.418,65.528,65.528,0,0,1-11.26,3.956,18.656,18.656,0,0,1,2.69-4.586c1.729-2.54,3.715-4.915,4.96-7.765,1.386-3.175.487-3.92-2.552-3.95-3.4-.034-6.353,1.389-9.087,3.24a44.7,44.7,0,0,0-11.881,11.935c-2.51,3.673-6.369,5.355-10.52,7.774a.117.117,0,0,1-.166-.15c2.169-4.778,4.013-8.833,5.848-12.892.432-.956,1.4-2.359.368-3.183-.929-.741-2.336.075-3.271.644-2.3,1.4-4,3.446-5.836,5.343-2.736-3.4-4.029-3.453-8.735-1.85-2,.68-3.636,1.325-5.622,2.03a1.7,1.7,0,0,1-2.244-.573c-2.264-2.612-4.284-2.8-7.164-.839-2.747,1.868-4.7,4.506-6.828,6.981-.918,1.068-1.961,2.816-2.925,3.1-.214-.339.034-.594.162-1.537.158-1.163.534-2.6-.875-3.348-1.246-.661-2.276.257-3.088.956a69.5,69.5,0,0,0-5.549,5.3c-2.756,2.964-5.387,6.042-8.092,9.1a.122.122,0,0,1-.21-.051,2.175,2.175,0,0,1,.111-1.174c.967-2.874,2.844-5.239,4.36-7.808.7-1.2,1.744-2.676.493-3.841-1.049-.978-2.541-.084-3.714.459a20.166,20.166,0,0,0-5.969,4.345c-.973,1-1.63,1.135-2.454-.1-2.367-3.542-2.408-2.85-5.361-.821-5.9,4.054-10.352,9.575-15.235,14.661-.569.593-1.866,2.067-2.287,1.187,1.925-3.1,3.832-6.1,5.659-9.147.367-.613,1.175-1.415.471-2.095-.56-.541-1.513-.278-2.271.041a46.507,46.507,0,0,1-4.392,1.809c-.806.245-1.619.835-2.676-.061-2.578-2.184-3.309-1.935-4.769,1.148-.411.869-.7,1.795-1.121,2.659a27.142,27.142,0,0,1-13.653,12.96.2.2,0,0,1-.253-.284c1.676-2.741,3.549-5.316,5.3-7.973a11.965,11.965,0,0,0,2.244-6.375c.029-1.568-.531-2.221-2.266-1.848a25.563,25.563,0,0,0-12.616,6.817c-3.059,2.952-5.65,6.318-8.545,9.41-4.754,5.077-10.886,7.62-17.593,9-2.269.468-3.212-.307-3.206-2.715.027-9.691,7.474-14.952,12.553-22.017.826,1.594-.016,2.4-.358,3.216a16.491,16.491,0,0,0-1.369,5.051c-.11,1.406,0,2.96,1.356,3.761,1.513.891,2.726-.25,3.729-1.173a39.928,39.928,0,0,0,11.15-18.213c.4-1.318.336-2.691-1.226-3.351-2.06-.87-2.18-2.184-1.093-3.914.368-.587.547-1.288.87-1.906.682-1.3.923-2.8-.52-3.441-1.319-.583-1.986.927-2.338,1.93-2.3,6.564-6.986,11.231-12.074,15.723-6.715,5.927-12.283,12.873-14.3,21.846-.806,3.582-.279,6.93,3.158,8.87,2.137,1.391,7.755-.982,9.228-1.5a67.247,67.247,0,0,0,10.4-5.163c.534-.3,1.333-1.453,1.874-.084,1.054,2.665,2.984,1.92,4.831,1.311a17.512,17.512,0,0,0,4.7-2.381,2.342,2.342,0,0,1,2.456-.575c2.378,1.194,4.2.094,6.092-1.184a81.062,81.062,0,0,0,14.422-12.418c1.556-1.7,3.359-3.193,6.094-3.382-1.517,3.223-4.122,5.464-5.156,8.6-.55,1.671-1.13,3.613.77,4.758,1.786,1.076,3.251-.25,4.4-1.444,2.505-2.609,4.844-5.375,7.3-8.031,3.745-4.049,7.468-8.131,12.342-11.2a5.509,5.509,0,0,1-.938,3.14c-1.594,3.449-3.972,6.425-5.965,9.634a13.722,13.722,0,0,0-2.025,3.97c-.193.822-.606,1.9.275,2.421.613.36,1.311-.11,1.849-.6a24.558,24.558,0,0,0,2.93-3.184c3.176-4.092,5.817-8.584,9.35-12.409.79-.855,1.477-1.936,3.2-2.092-.627,1.5-1.1,2.767-1.675,3.985a41.434,41.434,0,0,0-3.47,8.779c-.158.73-.468,1.692.556,2.043.772.264,1.635.672,2.44-.184,1.148-1.22,2.439-2.307,3.588-3.527q2.5-2.655,4.963-5.344l7.533-8.577-.345.881L321.12,815.1a7.177,7.177,0,0,0-.695,4.076c.351.716,1.229.826,2.757.375a9.081,9.081,0,0,0,4.018-2.46,2.857,2.857,0,0,1,3.961-.621,6.307,6.307,0,0,0,6.986-.413,18.982,18.982,0,0,0,4.085-3.747c2.917-3.461,4.914-7.485,7.054-11.42.5-.926,1.167-2.633,2.14-2.961,2.663-.9,7.034-2.017,9.983-2.931a.285.285,0,0,1,.32.4,72.239,72.239,0,0,1-7.618,11.813c-.944,1.267-1.835,2.575-2.713,3.889-.544.814-.69,1.581.314,2.258A1.643,1.643,0,0,0,354.06,813a19.492,19.492,0,0,0,1.424-1.562c2.746-3.451,5.452-6.934,8.221-10.367a23.468,23.468,0,0,1,5.926-5.486c-1.232,4.316-4.156,7.146-6.129,10.524-.682,1.167-1.451,2.552-.482,3.635.786.879,2.159.192,3.241-.183,3.806-1.318,6.973-3.76,10.338-5.846.736-.456,1.642-1.415,2.394-1.543.611-.1,1.543.647,2.284.871,1.905.577,5.629-.1,7.366-1.154,1.573-.958,3.1-2.245,3.589-1.943a7.083,7.083,0,0,0,5.307.973c12.454-3.389,23.164-9.359,33.172-17.415,7.237-5.824,13.772-12.388,20.626-18.617ZM248.591,803.923a.055.055,0,0,1,.087.056c-1.338,5.609-4.572,10.144-8.382,14.368a.055.055,0,0,1-.093-.05C241.671,812.744,243.9,807.619,248.591,803.923Zm1.124,27.722a.275.275,0,0,1-.355-.174,2.137,2.137,0,0,1,.285-1.642,26.477,26.477,0,0,1,13.129-13.42c.561-.272,1.31-1.022,1.88-.289.432.557-.062,1.323-.4,1.931C260.926,824.132,256.573,829.13,249.716,831.646Zm82.03-26.167a20.826,20.826,0,0,1-3.258,6.025c-1.448,1.681-2.25,1.733-2.25,1.733-.1-.543.491-1.345.491-1.345.62-.62,4.448-6.413,4.448-6.413C332.418,803.694,331.746,805.478,331.746,805.478Zm13.849-4.358c-1.4,4.767-4.512,8.213-8.262,11.243a4.812,4.812,0,0,1-3,1.44c-1.725.029-2.658-.693-1.827-2.4a44.263,44.263,0,0,1,9.595-13.375c.494-.457,1.022-1.049,1.783-.279C344.82,798.694,346.134,799.281,345.595,801.12Zm36.623-1.175c-.171,0-.3-.154-.2-.3,4.156-6.587,9.98-12.543,17.251-15.226a.194.194,0,0,1,.259.221C397.456,791.52,389.749,799.949,382.218,799.945Z" transform="translate(-221.288 -762.201)" fill="#fff"/>
</svg>
