<svg id="Grupo_1" data-name="Grupo 1" xmlns="http://www.w3.org/2000/svg" width="10.033" height="21.596" viewBox="0 0 10.033 21.596">
  <path id="Trazado_3" data-name="Trazado 3" d="M-113.205,313.764v10.441a.272.272,0,0,0,.272.272h3.877a.272.272,0,0,0,.272-.272V313.594h2.811a.272.272,0,0,0,.271-.249l.271-3.2a.273.273,0,0,0-.271-.3h-3.081v-2.268a.962.962,0,0,1,.962-.962h2.167a.272.272,0,0,0,.272-.272v-3.2a.272.272,0,0,0-.272-.272h-3.661a3.889,3.889,0,0,0-3.89,3.89v3.082h-1.939a.272.272,0,0,0-.272.272v3.2a.272.272,0,0,0,.272.272h1.939Z" transform="translate(115.416 -302.881)" fill="#fff" fill-rule="evenodd"/>
</svg>
