<svg xmlns="http://www.w3.org/2000/svg" width="6.304" height="13.569" viewBox="0 0 6.304 13.569">
  <path id="Trazado_165" data-name="Trazado 165" d="M929.973,337.719v6.56a.171.171,0,0,0,.171.171h2.436a.171.171,0,0,0,.171-.171v-6.667h1.766a.171.171,0,0,0,.17-.156l.17-2.009a.171.171,0,0,0-.17-.185h-1.936v-1.425a.6.6,0,0,1,.6-.605h1.362a.171.171,0,0,0,.171-.171v-2.009a.171.171,0,0,0-.171-.171h-2.3a2.444,2.444,0,0,0-2.444,2.444v1.936h-1.218a.171.171,0,0,0-.171.171v2.009a.171.171,0,0,0,.171.171h1.218Z" transform="translate(-928.58 -330.881)" fill="#2d2d2d" fill-rule="evenodd"/>
</svg>
