<svg xmlns="http://www.w3.org/2000/svg" width="14.154" height="14.153" viewBox="0 0 14.154 14.153">
  <path id="Trazado_166" data-name="Trazado 166" d="M985.237,336.377a.832.832,0,1,0,.832.832.832.832,0,0,0-.832-.832Zm-3.7,1.067a3.5,3.5,0,1,0,3.5,3.5A3.5,3.5,0,0,0,981.537,337.444Zm0,5.734a2.239,2.239,0,1,1,2.239-2.239,2.239,2.239,0,0,1-2.239,2.239Zm7.053-5.144a4.264,4.264,0,0,0-4.263-4.263H978.7a4.263,4.263,0,0,0-4.263,4.263v5.627a4.264,4.264,0,0,0,4.262,4.263h5.628a4.264,4.264,0,0,0,4.264-4.263Zm-1.335,5.627a2.928,2.928,0,0,1-2.928,2.928H978.7a2.928,2.928,0,0,1-2.928-2.928v-5.627a2.928,2.928,0,0,1,2.928-2.928h5.627a2.928,2.928,0,0,1,2.928,2.928Z" transform="translate(-974.437 -333.771)" fill="#2d2d2d"/>
</svg>
